<svg width="108" height="24" viewBox="0 0 108 24" fill="none" xmlns="http://www.w3.org/2000/svg">
<path fill="white" d="M36.028 19.228C35.1287 19.228 34.299 19.0633 33.539 18.734C32.7917 18.392 32.1773 17.9107 31.696 17.29L33.406 15.238C34.128 16.2133 34.9513 16.701 35.876 16.701C37.13 16.701 37.757 15.9663 37.757 14.497V8.17H33.083V5.7H40.816V14.326C40.816 15.96 40.4107 17.1887 39.6 18.012C38.7893 18.8227 37.5987 19.228 36.028 19.228ZM53.6603 13.927C53.6603 13.965 53.6413 14.231 53.6033 14.725H45.8703C46.0096 15.3583 46.339 15.8587 46.8583 16.226C47.3776 16.5933 48.0236 16.777 48.7963 16.777C49.3283 16.777 49.797 16.701 50.2023 16.549C50.6203 16.3843 51.0066 16.131 51.3613 15.789L52.9383 17.499C51.9756 18.601 50.5696 19.152 48.7203 19.152C47.5676 19.152 46.548 18.9303 45.6613 18.487C44.7746 18.031 44.0906 17.404 43.6093 16.606C43.128 15.808 42.8873 14.9023 42.8873 13.889C42.8873 12.8883 43.1216 11.989 43.5903 11.191C44.0716 10.3803 44.724 9.75333 45.5473 9.31C46.3833 8.854 47.3143 8.626 48.3403 8.626C49.341 8.626 50.2466 8.84133 51.0573 9.272C51.868 9.70267 52.5013 10.3233 52.9573 11.134C53.426 11.932 53.6603 12.863 53.6603 13.927ZM48.3593 10.868C47.688 10.868 47.1243 11.058 46.6683 11.438C46.2123 11.818 45.9336 12.3373 45.8323 12.996H50.8673C50.766 12.35 50.4873 11.837 50.0313 11.457C49.5753 11.0643 49.018 10.868 48.3593 10.868ZM62.2266 18.506C61.9353 18.7213 61.5743 18.886 61.1436 19C60.7256 19.1013 60.2823 19.152 59.8136 19.152C58.5976 19.152 57.654 18.8417 56.9826 18.221C56.324 17.6003 55.9946 16.6883 55.9946 15.485V11.286H54.4176V9.006H55.9946V6.517H58.9586V9.006H61.5046V11.286H58.9586V15.447C58.9586 15.8777 59.0663 16.2133 59.2816 16.454C59.5096 16.682 59.8263 16.796 60.2316 16.796C60.7003 16.796 61.0993 16.6693 61.4286 16.416L62.2266 18.506ZM64.0995 5.7H67.1775V16.492H73.8465V19H64.0995V5.7ZM80.147 19.152C79.0704 19.152 78.1014 18.9303 77.24 18.487C76.3914 18.031 75.7264 17.404 75.245 16.606C74.7637 15.808 74.523 14.9023 74.523 13.889C74.523 12.8757 74.7637 11.97 75.245 11.172C75.7264 10.374 76.3914 9.75333 77.24 9.31C78.1014 8.854 79.0704 8.626 80.147 8.626C81.2237 8.626 82.1864 8.854 83.035 9.31C83.8837 9.75333 84.5487 10.374 85.03 11.172C85.5114 11.97 85.752 12.8757 85.752 13.889C85.752 14.9023 85.5114 15.808 85.03 16.606C84.5487 17.404 83.8837 18.031 83.035 18.487C82.1864 18.9303 81.2237 19.152 80.147 19.152ZM80.147 16.72C80.907 16.72 81.5277 16.4667 82.009 15.96C82.503 15.4407 82.75 14.7503 82.75 13.889C82.75 13.0277 82.503 12.3437 82.009 11.837C81.5277 11.3177 80.907 11.058 80.147 11.058C79.387 11.058 78.76 11.3177 78.266 11.837C77.772 12.3437 77.525 13.0277 77.525 13.889C77.525 14.7503 77.772 15.4407 78.266 15.96C78.76 16.4667 79.387 16.72 80.147 16.72ZM98.2782 8.778V17.29C98.2782 19.1647 97.7906 20.558 96.8152 21.47C95.8399 22.382 94.4149 22.838 92.5402 22.838C91.5522 22.838 90.6149 22.7177 89.7282 22.477C88.8416 22.2363 88.1069 21.888 87.5242 21.432L88.7022 19.304C89.1329 19.6587 89.6776 19.9373 90.3362 20.14C90.9949 20.3553 91.6536 20.463 92.3122 20.463C93.3382 20.463 94.0919 20.2287 94.5732 19.76C95.0672 19.304 95.3142 18.6073 95.3142 17.67V17.233C94.5416 18.0817 93.4649 18.506 92.0842 18.506C91.1469 18.506 90.2856 18.3033 89.5002 17.898C88.7276 17.48 88.1132 16.8973 87.6572 16.15C87.2012 15.4027 86.9732 14.5413 86.9732 13.566C86.9732 12.5907 87.2012 11.7293 87.6572 10.982C88.1132 10.2347 88.7276 9.65833 89.5002 9.253C90.2856 8.835 91.1469 8.626 92.0842 8.626C93.5662 8.626 94.6936 9.11367 95.4662 10.089V8.778H98.2782ZM92.6732 16.074C93.4586 16.074 94.0982 15.846 94.5922 15.39C95.0989 14.9213 95.3522 14.3133 95.3522 13.566C95.3522 12.8187 95.0989 12.217 94.5922 11.761C94.0982 11.2923 93.4586 11.058 92.6732 11.058C91.8879 11.058 91.2419 11.2923 90.7352 11.761C90.2286 12.217 89.9752 12.8187 89.9752 13.566C89.9752 14.3133 90.2286 14.9213 90.7352 15.39C91.2419 15.846 91.8879 16.074 92.6732 16.074ZM103.868 10.127C104.223 9.633 104.698 9.25933 105.293 9.006C105.901 8.75267 106.598 8.626 107.383 8.626V11.362C107.054 11.3367 106.832 11.324 106.718 11.324C105.869 11.324 105.204 11.5647 104.723 12.046C104.242 12.5147 104.001 13.224 104.001 14.174V19H101.037V8.778H103.868V10.127Z" fill="#292A34"/>
<path fill-rule="evenodd" clip-rule="evenodd" d="M20.9824 0H17.9843C17.0525 0.00395047 16.1344 0.222751 15.3021 0.639198C14.4698 1.05565 13.7459 1.65839 13.1876 2.40001C13.1725 2.43001 13.1423 2.46001 13.1287 2.49001L12.827 2.91751L2.45812 1.7655C1.98762 1.71104 1.51205 1.8106 1.1036 2.04909C0.69516 2.28757 0.376126 2.65196 0.194821 3.087C0.00770558 3.52117 -0.0335935 4.00376 0.0770332 4.46313C0.18766 4.92249 0.44429 5.33413 0.808903 5.63699L7.2155 10.9785L5.47124 13.5H1.49841C1.16093 13.503 0.834227 13.6184 0.570472 13.8277C0.306716 14.037 0.121189 14.3282 0.0435111 14.6547C-0.0341665 14.9812 0.000471309 15.3242 0.141959 15.6288C0.283447 15.9334 0.523621 16.182 0.824006 16.335L3.76171 17.805C3.82744 18.0747 3.92312 18.3363 4.04692 18.585C4.26097 18.9978 4.56421 19.3584 4.93489 19.6411C5.30556 19.9238 5.73452 20.1214 6.19105 20.22L7.65911 23.175C7.78271 23.4219 7.97293 23.6298 8.20845 23.7754C8.44398 23.9211 8.71561 23.9989 8.993 24C9.10965 23.9999 9.2258 23.9848 9.33854 23.955C9.66784 23.8775 9.96105 23.6916 10.1706 23.4274C10.3802 23.1633 10.4937 22.8364 10.4927 22.5V18.525L13.0111 16.77L18.3781 23.22C18.6812 23.5776 19.0921 23.8287 19.55 23.9362C20.0078 24.0437 20.4883 24.0018 20.9203 23.8167C21.3524 23.6317 21.713 23.3133 21.9489 22.9087C22.1848 22.504 22.2835 22.0347 22.2303 21.57L21.0609 11.16L21.4955 10.86C21.5256 10.845 21.5558 10.815 21.586 10.8C22.3296 10.2366 22.9327 9.51061 23.3488 8.67824C23.7648 7.84586 23.9825 6.92946 23.985 6V3C23.985 2.20694 23.6692 1.44614 23.1066 0.883965C22.5439 0.321785 21.7801 0.00396529 20.9824 0ZM17.9843 3H20.9824V6C20.9813 6.46459 20.8726 6.9227 20.6649 7.33887C20.4571 7.75504 20.1559 8.11812 19.7844 8.40001L9.89073 15.3L7.49169 16.965L7.03895 17.28C6.99802 17.304 6.95053 17.3145 6.90321 17.31C6.86169 17.3084 6.82131 17.2961 6.78607 17.2743C6.75082 17.2524 6.72193 17.2218 6.70226 17.1854C6.68259 17.149 6.67279 17.1081 6.6739 17.0668C6.675 17.0256 6.68693 16.9853 6.70852 16.95L7.02394 16.5L8.68366 14.1L15.5792 4.2C15.8597 3.82823 16.2232 3.5263 16.6411 3.31805C17.059 3.10981 17.5199 3.00093 17.9873 3H17.9843ZM4.78781 5.04149L10.876 5.71951L8.94622 8.505L4.78781 5.04149ZM18.9439 19.2L15.4811 15.045L18.2695 13.11L18.9439 19.2Z" fill="#0077FF"/>
</svg>
