<svg width="24" height="24" viewBox="0 0 24 24" fill="none" xmlns="http://www.w3.org/2000/svg">
<path fill-rule="evenodd" clip-rule="evenodd" d="M20.9824 0H17.9843C17.0525 0.00395047 16.1344 0.222751 15.3021 0.639198C14.4698 1.05565 13.7459 1.65839 13.1876 2.40001C13.1725 2.43001 13.1423 2.46001 13.1287 2.49001L12.827 2.91751L2.45812 1.7655C1.98762 1.71104 1.51205 1.8106 1.1036 2.04909C0.69516 2.28757 0.376126 2.65196 0.194821 3.087C0.00770558 3.52117 -0.0335935 4.00376 0.0770332 4.46313C0.18766 4.92249 0.44429 5.33413 0.808903 5.63699L7.2155 10.9785L5.47124 13.5H1.49841C1.16093 13.503 0.834227 13.6184 0.570472 13.8277C0.306716 14.037 0.121189 14.3282 0.0435111 14.6547C-0.0341665 14.9812 0.000471309 15.3242 0.141959 15.6288C0.283447 15.9334 0.523621 16.182 0.824006 16.335L3.76171 17.805C3.82744 18.0747 3.92312 18.3363 4.04692 18.585C4.26097 18.9978 4.56421 19.3584 4.93489 19.6411C5.30556 19.9238 5.73452 20.1214 6.19105 20.22L7.65911 23.175C7.78271 23.4219 7.97293 23.6298 8.20845 23.7754C8.44398 23.9211 8.71561 23.9989 8.993 24C9.10965 23.9999 9.2258 23.9848 9.33854 23.955C9.66784 23.8775 9.96105 23.6916 10.1706 23.4274C10.3802 23.1633 10.4937 22.8364 10.4927 22.5V18.525L13.0111 16.77L18.3781 23.22C18.6812 23.5776 19.0921 23.8287 19.55 23.9362C20.0078 24.0437 20.4883 24.0018 20.9203 23.8167C21.3524 23.6317 21.713 23.3133 21.9489 22.9087C22.1848 22.504 22.2835 22.0347 22.2303 21.57L21.0609 11.16L21.4955 10.86C21.5256 10.845 21.5558 10.815 21.586 10.8C22.3296 10.2366 22.9327 9.51061 23.3488 8.67824C23.7648 7.84586 23.9825 6.92946 23.985 6V3C23.985 2.20694 23.6692 1.44614 23.1066 0.883965C22.5439 0.321785 21.7801 0.00396529 20.9824 0ZM17.9843 3H20.9824V6C20.9813 6.46459 20.8726 6.9227 20.6649 7.33887C20.4571 7.75504 20.1559 8.11812 19.7844 8.40001L9.89073 15.3L7.49169 16.965L7.03895 17.28C6.99802 17.304 6.95053 17.3145 6.90321 17.31C6.86169 17.3084 6.82131 17.2961 6.78607 17.2743C6.75082 17.2524 6.72193 17.2218 6.70226 17.1854C6.68259 17.149 6.67279 17.1081 6.6739 17.0668C6.675 17.0256 6.68693 16.9853 6.70852 16.95L7.02394 16.5L8.68366 14.1L15.5792 4.2C15.8597 3.82823 16.2232 3.5263 16.6411 3.31805C17.059 3.10981 17.5199 3.00093 17.9873 3H17.9843ZM4.78781 5.04149L10.876 5.71951L8.94622 8.505L4.78781 5.04149ZM18.9439 19.2L15.4811 15.045L18.2695 13.11L18.9439 19.2Z" fill="white"/>
</svg>
